<?xml version="1.0" encoding="UTF-8"?>
<svg xmlns="http://www.w3.org/2000/svg" id="Lag_1" data-name="Lag 1" viewBox="0 0 1054.87 180.56">
  <defs>
    <style>
      .cls-1, .cls-2 {
        fill: #020202;
      }

      .cls-1, .cls-2, .cls-3 {
        stroke-width: 2px;
      }

      .cls-1, .cls-3 {
        stroke: #000;
      }

      .cls-2 {
        stroke: #fff;
      }

      .cls-3 {
        fill: #fff;
      }
    </style>
  </defs>
  <g>
    <path class="cls-2" d="m70.32,22.47c-3.77,6.54-5.7,13.14-6.51,20.63-.02.17-.1.3-.24.39-.42.27-.88.41-1.37.42-4.44.1-9.03,2.11-12.62,4.75-.12.08-.14.25-.06.37,0,0,0,0,0,0,8.99,11.83,9.06,26.66,0,38.55-.08.1-.06.25.04.33,0,0,0,0,0,0,8.49,5.94,19.14,6.77,27.92,1.16,18.97-12.1,13.28-39.24-7.86-44.88-.15-.04-.22-.14-.21-.29,1.45-16.61,8.14-26.89,25.91-28.55,4.44-.41,4.19-5.54.64-5.48-6.76.12-13.15,2.05-19.17,5.78-.17.1-.28.06-.34-.12-4.39-13.5-17.53-12.34-28.73-11.56-.3.02-.74.1-1.29.24-1.04.26-2.5.16-3.3.27-3.15.44-6.33.51-9.52.21-.14-.01-.19.05-.16.18,3.48,16.7,22.44,21.96,36.76,17.43.17-.05.2,0,.12.15"></path>
    <path class="cls-2" d="m50.49,68.28c0-13.58-11.01-24.58-24.58-24.58S1.32,54.71,1.32,68.28h0c0,13.58,11.01,24.58,24.58,24.58h0c13.58,0,24.58-11.01,24.58-24.58"></path>
    <path class="cls-2" d="m88.13,87.97c18.43,13,43.19-2.13,38.88-24.35-3.48-17.93-24.03-25.72-38.9-15-.16.11-.19.34-.08.5,0,0,0,0,0,.01,8.88,11.42,9.07,27.02.01,38.3-.13.17-.1.4.06.53,0,0,.01,0,.02.01"></path>
    <path class="cls-2" d="m31.58,124.8c3.56,3.64,7.81,5.89,12.76,6.76,19.33,3.37,34.03-15.18,27.26-33.31-.06-.17-.18-.24-.36-.2-9.61,1.84-18.24-.17-25.89-6.03-.13-.1-.31-.1-.43,0-5.54,4.33-11.84,6.58-18.92,6.75-.18,0-.29.09-.34.26-3.14,9.92-1.16,18.51,5.92,25.76"></path>
    <path class="cls-2" d="m72.05,128.11c6.86,4,13.78,4.89,20.75,2.67,13.61-4.33,20.41-18.94,15.4-32.22-.05-.15-.16-.21-.31-.19-8.98,1.22-16.98-.9-24.03-6.35-.13-.1-.26-.1-.39,0-1.97,1.52-4.07,2.83-6.31,3.92-.07.04-.1.12-.08.19,3.92,11.44,2.19,21.81-5.2,31.13-.19.25-.15.6.09.8.02.02.04.03.06.04"></path>
    <path class="cls-2" d="m49.61,161.03c5.45,5.6,11.94,8.06,19.49,7.38,15.58-1.39,24.92-15.49,21.8-30.49-.06-.3-.34-.49-.65-.45-8.17,1.34-16.36-.88-23.06-5.59-.13-.09-.27-.09-.4,0-6.84,4.9-14.49,6.78-22.95,5.64-.43-.06-.68.12-.76.55-1.66,9.11.52,16.76,6.54,22.95"></path>
    <path class="cls-1" d="m518.28,124.17c14.87,12.31,37.78,13.77,54.63,4.75,11.93-6.38,19.36-16.74,22.29-31.09,5.87-28.76-9.21-55.74-39.9-59.26-28.44-3.27-50.73,14.55-53.17,42.36-1.41,16.08,3.29,32.58,16.15,43.24"></path>
    <path class="cls-1" d="m279.65,83.68c5.54-3.73,9.29-8.47,10.16-15.41,2.56-20.37-12.95-28.78-30.71-28.7-9.13.05-18.15-.01-27.04-.18-.39,0-.7.3-.71.69,0,0,0,0,0,.01v93.01c0,.24.2.44.45.45,13.48.18,26.93.06,40.35-.35,12.7-.39,22.49-8.41,24.44-20.93,1.5-9.64-1.46-20.04-10.47-25.1-1.79-1.01-4.22-1.79-6.38-2.68-.24-.09-.35-.36-.26-.6.03-.09.09-.16.17-.21"></path>
    <path class="cls-1" d="m315.23,103.13c1.2,42.61,69.92,42.11,70.64-.3.31-18.78.36-39.79.15-63.03,0-.3-.15-.45-.45-.45h-14.7c-.29,0-.53.24-.53.54.03,18.56.03,37.15-.02,55.77-.01,5.91-.44,10.12-1.28,12.62-5.58,16.51-30.79,16.97-36.64.49-.98-2.75-1.5-7.6-1.55-14.55-.13-18.03-.2-36.07-.22-54.12,0-.35-.28-.63-.63-.64l-14.26-.16c-.34,0-.51.17-.52.51-.35,29.55-.34,50.65.01,63.32"></path>
    <path class="cls-1" d="m411.5,40.22l-.32,92.42c0,.52.43.95.95.95h0l32.57.11c23.42.08,42.48-18.88,42.56-42.34l.04-9.34c.08-23.47-18.84-42.56-42.27-42.64,0,0,0,0-.01,0l-32.57-.11c-.52,0-.95.43-.95.95h0"></path>
    <path class="cls-1" d="m633.13,119.6c-.17,0-.3-.13-.3-.3h0s-.2-79.4-.2-79.4c0-.17-.13-.3-.3-.3h0l-14.68-.2c-.17,0-.3.13-.3.3v93.6c0,.17.13.3.3.3h45.67c.17,0,.3-.13.3-.3h0s.08-13.4.08-13.4c0-.17-.13-.3-.3-.3h-30.27"></path>
    <path class="cls-1" d="m696.35,94.25c0-.36.29-.65.65-.65h31.45c.36,0,.65-.29.65-.65h0v-12.7c0-.36-.29-.65-.65-.65h-31.17c-.36,0-.65-.29-.65-.65l-.1-25.2c0-.36.29-.65.65-.65h36c.36,0,.65-.29.65-.65l.03-12.41c0-.36-.29-.65-.65-.65h0l-51.96.28c-.36,0-.65.29-.65.65v92.63c0,.36.29.65.65.65h14.45c.36,0,.65-.29.65-.65h0v-38.7"></path>
    <path class="cls-1" d="m768.09,39.79c0-.18-.14-.32-.32-.32h-15.1c-.18,0-.32.14-.32.32h0v93.48c0,.18.14.32.32.32h15.1c.18,0,.32-.14.32-.32h0V39.79"></path>
    <path class="cls-1" d="m863.02,113.67c-.07.22-.3.33-.52.26-.12-.04-.22-.14-.26-.26l-25.9-74.05c-.06-.16-.22-.27-.39-.27h-15.63c-.23,0-.41.18-.41.41,0,.05,0,.1.02.14l34.16,93.43c.06.16.22.27.39.27h16.18c.17,0,.33-.11.39-.27l34.37-93.43c.08-.21-.03-.45-.25-.53-.05-.02-.1-.03-.14-.02h-15.68c-.17,0-.33.11-.39.27l-25.94,74.05"></path>
    <path class="cls-1" d="m937.79,39.82c0-.25-.21-.46-.46-.46h-14.68c-.25,0-.46.21-.46.46v93.32c0,.25.21.46.46.46h14.68c.25,0,.46-.21.46-.46h0V39.82"></path>
    <path class="cls-1" d="m1028.39,110.55l-45.77-70.63c-.17-.25-.45-.4-.75-.4l-15.99.12c-.58,0-.87.29-.87.87l-.22,91.53c0,.86.7,1.56,1.56,1.56h13.52c.31,0,.46-.15.46-.46l.19-70.56c0-.17.14-.3.31-.29.1,0,.19.05.24.13l45.03,70.11c.43.67,1.17,1.07,1.96,1.07h15.98c.17,0,.31-.14.31-.31V39.97c0-.34-.28-.62-.63-.62h-14.22c-.5,0-.9.41-.9.91v70.23c0,.26-.07.28-.21.06"></path>
    <path class="cls-3" d="m518.33,78.39c-4.64,23.73,11.5,46.28,37.1,41.21,20.26-4.01,28.26-22.4,24.55-41.48-6.65-34.22-54.99-33.85-61.65.27"></path>
    <path class="cls-3" d="m246.35,53.23v25.2c0,.41.33.74.74.74h15.24c7.35,0,13.3-5.52,13.3-12.32h0v-2.04c0-6.8-5.95-12.32-13.3-12.32h-15.24c-.41,0-.74.33-.74.74"></path>
    <path class="cls-3" d="m246.33,92.37l.04,26.96c0,.41.33.74.74.74l19.7-.03c8.33-.01,15.07-6.21,15.06-13.84,0,0,0,0,0,0v-.8c-.02-7.63-6.77-13.8-15.1-13.79l-19.7.03c-.41,0-.74.33-.74.74"></path>
    <path class="cls-3" d="m426.79,53.64l.12,65.48c0,.28.22.5.5.5l16.18-.03c15.04-.03,27.22-12.66,27.19-28.23h0s-.02-10.12-.02-10.12c-.03-15.56-12.25-28.16-27.29-28.13l-16.18.03c-.28,0-.5.22-.5.5"></path>
  </g>
  <path class="cls-2" d="m70.21,22.33c-14.32,4.53-33.28-.73-36.76-17.43-.03-.13.03-.19.16-.18,3.19.29,6.37.22,9.52-.21.8-.11,2.26-.02,3.3-.27.56-.14.99-.22,1.29-.24,11.2-.78,24.34-1.94,28.73,11.56.06.19.17.23.34.12,6.01-3.74,12.4-5.66,19.17-5.78,3.54-.06,3.8,5.07-.64,5.48-17.77,1.66-24.46,11.94-25.91,28.55-.01.16.06.25.21.29,21.14,5.64,26.83,32.77,7.86,44.88-8.78,5.61-19.42,4.78-27.92-1.16-.11-.08-.13-.22-.06-.33,0,0,0,0,0,0,9.06-11.89,9-26.72,0-38.55-.09-.12-.06-.29.05-.37,0,0,0,0,0,0,3.59-2.64,8.18-4.65,12.62-4.75.49-.01.95-.15,1.37-.42.14-.09.22-.22.24-.39.81-7.49,2.73-14.09,6.51-20.63.09-.15.05-.2-.12-.15Z"></path>
  <circle class="cls-2" cx="25.91" cy="68.28" r="24.58" transform="translate(-45.65 82.92) rotate(-80.78)"></circle>
  <path class="cls-2" d="m88.13,87.97c-.17-.12-.21-.36-.09-.53,0,0,0-.01.01-.02,9.06-11.28,8.87-26.88-.01-38.3-.12-.15-.09-.38.06-.5,0,0,0,0,.01,0,14.87-10.72,35.42-2.93,38.9,15,4.31,22.22-20.45,37.35-38.88,24.35Z"></path>
  <path class="cls-2" d="m31.58,124.8c-7.09-7.26-9.06-15.84-5.92-25.76.05-.17.17-.25.34-.26,7.07-.17,13.38-2.42,18.92-6.75.13-.1.3-.1.43,0,7.65,5.86,16.28,7.87,25.89,6.03.18-.03.3.03.36.2,6.77,18.13-7.93,36.68-27.26,33.31-4.95-.87-9.2-3.12-12.76-6.76Z"></path>
  <path class="cls-2" d="m72.05,128.11c-.27-.16-.36-.51-.2-.78.01-.02.03-.04.04-.06,7.39-9.31,9.12-19.69,5.2-31.13-.03-.07,0-.16.08-.19,2.23-1.09,4.34-2.4,6.31-3.92.13-.1.26-.1.39,0,7.04,5.46,15.05,7.57,24.03,6.35.16-.02.26.04.31.19,5.01,13.28-1.8,27.89-15.4,32.22-6.97,2.22-13.89,1.33-20.75-2.67Z"></path>
  <path class="cls-2" d="m49.61,161.03c-6.02-6.18-8.2-13.83-6.54-22.95.08-.43.33-.61.76-.55,8.46,1.14,16.11-.74,22.95-5.64.14-.09.27-.1.4,0,6.7,4.71,14.89,6.93,23.06,5.59.3-.05.59.15.65.45,3.12,15.01-6.21,29.1-21.8,30.49-7.55.68-14.05-1.78-19.49-7.38Z"></path>
  <rect class="cls-1" x="175.83" y="1.04" width="9.39" height="179.52"></rect>
</svg>
