<?xml version="1.0" encoding="UTF-8"?>
<svg xmlns="http://www.w3.org/2000/svg" id="Lag_1" data-name="Lag 1" viewBox="0 0 129 181">
  <defs>
    <style>
      .cls-2 {
        stroke: #fff;
      }
    </style>
  </defs>
  <path class="cls-2" d="m70.21,22.33c-14.32,4.53-33.28-.73-36.76-17.43-.03-.13.03-.19.16-.18,3.19.29,6.37.22,9.52-.21.8-.11,2.26-.02,3.3-.27.56-.14.99-.22,1.29-.24,11.2-.78,24.34-1.94,28.73,11.56.06.19.17.23.34.12,6.01-3.74,12.4-5.66,19.17-5.78,3.54-.06,3.8,5.07-.64,5.48-17.77,1.66-24.46,11.94-25.91,28.55-.01.16.06.25.21.29,21.14,5.64,26.83,32.77,7.86,44.88-8.78,5.61-19.42,4.78-27.92-1.16-.11-.08-.13-.22-.06-.33,0,0,0,0,0,0,9.06-11.89,9-26.72,0-38.55-.09-.12-.06-.29.05-.37,0,0,0,0,0,0,3.59-2.64,8.18-4.65,12.62-4.75.49-.01.95-.15,1.37-.42.14-.09.22-.22.24-.39.81-7.49,2.73-14.09,6.51-20.63.09-.15.05-.2-.12-.15Z"></path>
  <circle class="cls-2" cx="25.91" cy="68.28" r="24.58" transform="translate(-45.65 82.92) rotate(-80.78)"></circle>
  <path class="cls-2" d="m88.13,87.97c-.17-.12-.21-.36-.09-.53,0,0,0-.01.01-.02,9.06-11.28,8.87-26.88-.01-38.3-.12-.15-.09-.38.06-.5,0,0,0,0,.01,0,14.87-10.72,35.42-2.93,38.9,15,4.31,22.22-20.45,37.35-38.88,24.35Z"></path>
  <path class="cls-2" d="m31.58,124.8c-7.09-7.26-9.06-15.84-5.92-25.76.05-.17.17-.25.34-.26,7.07-.17,13.38-2.42,18.92-6.75.13-.1.3-.1.43,0,7.65,5.86,16.28,7.87,25.89,6.03.18-.03.3.03.36.2,6.77,18.13-7.93,36.68-27.26,33.31-4.95-.87-9.2-3.12-12.76-6.76Z"></path>
  <path class="cls-2" d="m72.05,128.11c-.27-.16-.36-.51-.2-.78.01-.02.03-.04.04-.06,7.39-9.31,9.12-19.69,5.2-31.13-.03-.07,0-.16.08-.19,2.23-1.09,4.34-2.4,6.31-3.92.13-.1.26-.1.39,0,7.04,5.46,15.05,7.57,24.03,6.35.16-.02.26.04.31.19,5.01,13.28-1.8,27.89-15.4,32.22-6.97,2.22-13.89,1.33-20.75-2.67Z"></path>
  <path class="cls-2" d="m49.61,161.03c-6.02-6.18-8.2-13.83-6.54-22.95.08-.43.33-.61.76-.55,8.46,1.14,16.11-.74,22.95-5.64.14-.09.27-.1.4,0,6.7,4.71,14.89,6.93,23.06,5.59.3-.05.59.15.65.45,3.12,15.01-6.21,29.1-21.8,30.49-7.55.68-14.05-1.78-19.49-7.38Z"></path>
</svg>
